<?xml version="1.0" encoding="utf-8"?>
<!-- Generator: Adobe Illustrator 26.0.1, SVG Export Plug-In . SVG Version: 6.00 Build 0)  -->
<svg version="1.2" baseProfile="tiny" id="Layer_1" xmlns="http://www.w3.org/2000/svg" xmlns:xlink="http://www.w3.org/1999/xlink"
	 x="0px" y="0px" viewBox="0 0 558.72 544.32" overflow="visible" xml:space="preserve">
<path fill="#FFFFFF" d="M180.53,126.39c12.2,0.63,23.56,4.91,29.71,17.51c5.75,11.78,5.35,23.68-2.87,34.22
	c-9.68,12.42-23.3,14.72-37.75,11.81c-12.9-2.6-21.44-10.65-24.63-23.79C139.82,144.82,155.96,126.22,180.53,126.39z"/>
<path d="M364.81,381.44c-89.7,50.2-159.3,42.27-209.28-23.07c-44.04-57.57-39.48-130.99,11.41-183.58
	c53.85-55.66,121.89-58.15,191.89-9.39c15.39-4.22,32.64-14.39,39.88-9.56c8.93,5.96,12.79,24.32,13.14,37.47
	c1.4,52.56,0.19,105.18,0.88,157.76c0.16,12.02,4.05,23.99,7.12,40.89c38.61-26.32,44.43-62.2,49.2-95.91
	c15.14-107.09-59.51-198.87-167.3-209C179.77,75.57,86.97,150.01,81.29,263.86c-5.36,107.49,81.38,195.67,192.94,195.04
	c16.88-0.1,34.03-3.86,50.51-8.06c18.36-4.69,38.32-12.62,45.11,12.94c6.78,25.48-14.21,33.92-33.24,39.71
	c-102.88,31.29-233.09-23.57-282.77-118.55C-32.32,220.19,88.31,30.65,278.45,32.03c180.14,1.31,295.19,167.65,229.78,332.81
	c-5.75,14.51-13.97,28.47-23.28,41.03c-17.31,23.37-37.9,41.53-70.82,34.95C381.59,434.31,369.52,411.07,364.81,381.44z
	 M267.35,181.34c-53.02,0.35-89.38,38.45-89.83,94.15c-0.44,54.86,37.46,94.33,90.17,93.91c55.35-0.45,93.56-39.37,93.44-95.18
	C360.99,216.68,324.93,180.97,267.35,181.34z"/>
</svg>
