<?xml version="1.0" encoding="utf-8"?>
<!-- Generator: Adobe Illustrator 26.0.1, SVG Export Plug-In . SVG Version: 6.00 Build 0)  -->
<svg version="1.1" id="Layer_1" xmlns="http://www.w3.org/2000/svg" xmlns:xlink="http://www.w3.org/1999/xlink" x="0px" y="0px"
	 viewBox="0 0 558.7 544.3" style="enable-background:new 0 0 558.7 544.3;" xml:space="preserve">
<style type="text/css">
	.st0{fill:#FFFFFF;}
</style>
<path class="st0" d="M180.5,126.4c12.2,0.6,23.6,4.9,29.7,17.5c5.8,11.8,5.4,23.7-2.9,34.2c-9.7,12.4-23.3,14.7-37.8,11.8
	c-12.9-2.6-21.4-10.6-24.6-23.8C139.8,144.8,156,126.2,180.5,126.4z"/>
<path class="st0" d="M364.8,381.4c-89.7,50.2-159.3,42.3-209.3-23.1c-44-57.6-39.5-131,11.4-183.6c53.9-55.7,121.9-58.2,191.9-9.4
	c15.4-4.2,32.6-14.4,39.9-9.6c8.9,6,12.8,24.3,13.1,37.5c1.4,52.6,0.2,105.2,0.9,157.8c0.2,12,4,24,7.1,40.9
	c38.6-26.3,44.4-62.2,49.2-95.9c15.1-107.1-59.5-198.9-167.3-209C179.8,75.6,87,150,81.3,263.9c-5.4,107.5,81.4,195.7,192.9,195
	c16.9-0.1,34-3.9,50.5-8.1c18.4-4.7,38.3-12.6,45.1,12.9c6.8,25.5-14.2,33.9-33.2,39.7c-102.9,31.3-233.1-23.6-282.8-118.6
	C-32.3,220.2,88.3,30.6,278.5,32c180.1,1.3,295.2,167.6,229.8,332.8c-5.8,14.5-14,28.5-23.3,41c-17.3,23.4-37.9,41.5-70.8,35
	C381.6,434.3,369.5,411.1,364.8,381.4z M267.4,181.3c-53,0.4-89.4,38.4-89.8,94.1c-0.4,54.9,37.5,94.3,90.2,93.9
	c55.4-0.5,93.6-39.4,93.4-95.2C361,216.7,324.9,181,267.4,181.3z"/>
</svg>
