<?xml version="1.0" encoding="utf-8"?>
<!-- Generator: Adobe Illustrator 26.0.1, SVG Export Plug-In . SVG Version: 6.00 Build 0)  -->
<svg version="1.2" baseProfile="tiny" id="Layer_1" xmlns="http://www.w3.org/2000/svg" xmlns:xlink="http://www.w3.org/1999/xlink"
	 x="0px" y="0px" viewBox="0 0 97 100" overflow="visible" xml:space="preserve">
<path fill="none" d="M60.28,38.06c0,2.61-0.79,4.6-2.36,6.01c-1.57,1.4-3.54,2.09-5.9,2.09H35.98V30.05h16.04
	c2.67,0,4.72,0.6,6.13,1.8C59.57,33.04,60.28,35.11,60.28,38.06z"/>
<path fill="none" d="M62.79,62.48c0,2.95-0.83,5.23-2.48,6.83c-1.64,1.62-3.96,2.42-6.95,2.42H35.98V53.5h17.38
	c2.99,0,5.28,0.75,6.95,2.32S62.79,59.59,62.79,62.48z"/>
<path fill="none" d="M0,0v100h96.24V0H0z M71.44,70.21c-0.78,2-2.01,3.71-3.69,5.15c-1.69,1.44-3.82,2.58-6.45,3.43
	c-2.63,0.85-5.74,1.28-9.36,1.28H26.15V21.73h27.29c5.03,0,9.07,1.2,12.1,3.6c3.04,2.4,4.57,6.01,4.57,10.86
	c0,2.94-0.7,5.46-2.08,7.55c-1.38,2.09-3.37,3.73-5.94,4.87v0.16c3.45,0.77,6.08,2.47,7.86,5.1c1.78,2.65,2.67,5.95,2.67,9.94
	C72.62,66.1,72.23,68.24,71.44,70.21z"/>
<g>
	<path fill="#563D7C" d="M60.28,38.06c0,2.61-0.79,4.6-2.36,6.01c-1.57,1.4-3.54,2.09-5.9,2.09H35.98V30.05h16.04
		c2.67,0,4.72,0.6,6.13,1.8C59.57,33.04,60.28,35.11,60.28,38.06z"/>
	<path fill="#563D7C" d="M62.79,62.48c0,2.95-0.83,5.23-2.48,6.83c-1.64,1.62-3.96,2.42-6.95,2.42H35.98V53.5h17.38
		c2.99,0,5.28,0.75,6.95,2.32S62.79,59.59,62.79,62.48z"/>
	<path fill="#563D7C" d="M80.2,0H16.04C7.22,0,0,7.5,0,16.67v66.66C0,92.5,7.22,100,16.04,100H80.2c8.82,0,16.04-7.5,16.04-16.67
		V16.67C96.24,7.5,89.02,0,80.2,0z M71.44,70.21c-0.78,2-2.01,3.71-3.69,5.15c-1.69,1.44-3.82,2.58-6.45,3.43
		c-2.63,0.85-5.74,1.28-9.36,1.28H26.15V21.73h27.29c5.03,0,9.07,1.2,12.1,3.6c3.04,2.4,4.57,6.01,4.57,10.86
		c0,2.94-0.7,5.46-2.08,7.55c-1.38,2.09-3.37,3.73-5.94,4.87v0.16c3.45,0.77,6.08,2.47,7.86,5.1c1.78,2.65,2.67,5.95,2.67,9.94
		C72.62,66.1,72.23,68.24,71.44,70.21z"/>
</g>
</svg>
