<svg width="31" height="29" viewBox="0 0 31 29" fill="none" xmlns="http://www.w3.org/2000/svg">
<path d="M28.248 0.27002H3.28708C2.58395 0.27002 1.98825 0.624795 1.49997 1.33435C1.01169 2.0439 0.767548 2.86261 0.767548 3.79049V24.7496C0.767548 25.6774 1.01169 26.4961 1.49997 27.2057C1.98825 27.9152 2.58395 28.27 3.28708 28.27H28.248C28.9511 28.27 29.5468 27.9152 30.0351 27.2057C30.5234 26.4961 30.7675 25.6774 30.7675 24.7496V3.79049C30.7675 2.86261 30.5234 2.0439 30.0351 1.33435C29.5468 0.624795 28.9511 0.27002 28.248 0.27002ZM25.9043 3.79049L15.7675 12.1414L5.63083 3.79049H25.9043ZM3.28708 24.7496V5.91914L15.123 15.8256C15.2011 15.9347 15.416 15.9893 15.7675 15.9893C16.1191 15.9893 16.334 15.9347 16.4121 15.8256L28.248 5.91914V24.7496H3.28708Z" fill="white"/>
</svg>
