<svg width="31" height="31" viewBox="0 0 31 31" fill="none" xmlns="http://www.w3.org/2000/svg">
<path d="M29.5675 0.27002H1.96755C1.3038 0.27002 0.767548 0.80627 0.767548 1.47002V29.07C0.767548 29.7338 1.3038 30.27 1.96755 30.27H29.5675C30.2313 30.27 30.7675 29.7338 30.7675 29.07V1.47002C30.7675 0.80627 30.2313 0.27002 29.5675 0.27002ZM28.3675 27.87H21.4638V18.6525H25.3638L25.9488 14.1263H21.4638V11.235C21.4638 9.92252 21.8275 9.03002 23.7063 9.03002H26.1025V4.98002C25.6863 4.92377 24.265 4.80002 22.6075 4.80002C19.15 4.80002 16.7838 6.91127 16.7838 10.785V14.1225H12.8763V18.6488H16.7875V27.87H3.16755V2.67002H28.3675V27.87Z" fill="white" fill-opacity="0.9"/>
</svg>
