<?xml version="1.0" encoding="utf-8"?>
<!-- Generator: Adobe Illustrator 26.0.1, SVG Export Plug-In . SVG Version: 6.00 Build 0)  -->
<svg version="1.2" baseProfile="tiny" id="Layer_1" xmlns="http://www.w3.org/2000/svg" xmlns:xlink="http://www.w3.org/1999/xlink"
	 x="0px" y="0px" viewBox="0 0 70 100" overflow="visible" xml:space="preserve">
<rect fill="none" width="69.49" height="100"/>
<g>
	<path fill="#0ACF83" d="M17.38,100c9.59,0,17.37-7.47,17.37-16.67V66.67H17.38c-9.59,0-17.37,7.47-17.37,16.67S7.79,100,17.38,100z
		"/>
	<path fill="#A259FF" d="M0.01,50c0-9.2,7.78-16.67,17.37-16.67h17.37v33.33H17.38C7.79,66.67,0.01,59.2,0.01,50z"/>
	<path fill="#F24E1E" d="M0,16.67C0,7.47,7.79,0,17.37,0h17.37v33.33H17.37C7.79,33.33,0,25.87,0,16.67z"/>
	<path fill="#FF7262" d="M34.75,0h17.37c9.59,0,17.37,7.47,17.37,16.67c0,9.2-7.78,16.67-17.37,16.67H34.75V0z"/>
	<path fill="#1ABCFE" d="M69.48,50c0,9.2-7.78,16.67-17.37,16.67S34.75,59.2,34.75,50s7.78-16.67,17.37-16.67S69.48,40.8,69.48,50z"
		/>
</g>
</svg>
