<?xml version="1.0" encoding="utf-8"?>
<!-- Generator: Adobe Illustrator 26.0.1, SVG Export Plug-In . SVG Version: 6.00 Build 0)  -->
<svg version="1.1" id="Layer_1" xmlns="http://www.w3.org/2000/svg" xmlns:xlink="http://www.w3.org/1999/xlink" x="0px" y="0px"
	 viewBox="0 0 2884.1 2607.1" style="enable-background:new 0 0 2884.1 2607.1;" xml:space="preserve">
<style type="text/css">
	.st0{fill:#FFFFFF;}
</style>
<path class="st0" d="M2717.5,1416.6c-6.8,46.7-11.9,93.6-20.6,139.9c-57,306.6-208.8,557.4-448.4,755.6
	c-121.1,100.1-257.1,174.2-406.1,224.2c-13.4,4.5-27.9,7.4-41.9,7.6c-40.2,0.8-62.4-20.9-64.7-61.6c-0.7-11.8-0.2-23.7-0.1-35.5
	c0.5-95.6,0.8-191.3,1.6-286.9c0.8-96.7-11.9-189.1-83.7-261.7c62.2-13.1,123.8-22.9,183.7-39.1c228.3-61.5,359.1-210.9,393.3-444.6
	c16.3-111.4,20.4-222.2-20.4-330.3c-20.6-54.4-50-103.5-88.2-147.1c-9.5-10.8-11.5-19.7-7.1-33.6c32.6-103.4,21.9-205-13.3-305.8
	c-5.3-15-15.4-15.4-27.2-15.7c-65.2-1.6-125,19.6-182.1,47.5c-45.5,22.2-88.3,49.7-133.2,73.1c-11.3,5.9-27.2,9.7-39.1,6.8
	c-203.6-49.6-406.7-49.1-610.2,0.2c-11.2,2.7-26.8-0.1-36.7-6.2c-75.7-46.8-152.9-90-240.1-112.1c-92.4-23.3-104.3-16.8-125.2,74.1
	c-18.7,81.4-18.7,162.5,8,242.8c2.5,7.4-0.2,20-5.4,25.9c-105.1,119.3-133.2,260.4-119.3,414c8.7,96,28.5,188.8,76.4,273.6
	c67.8,120.1,173.1,192.8,302.5,231.2c66.7,19.8,135.7,31.7,205.1,47.4c-42.1,42.2-64.9,96.3-75.5,156.6c-1.1,6.3-9.8,13.5-16.6,16.2
	c-143.3,56.4-278.1,30.4-364.8-111.8c-43.1-70.8-103.7-119.9-189.6-130c-9.9-1.2-20.8-2-30,1c-12.7,4-24.2,11.7-36.2,17.9
	c7,11.8,11.8,26.2,21.6,34.8c19.5,17.3,42.9,30.2,62.8,47.1c50.3,42.5,82.7,97.9,107.4,157.9c46.9,114,135.1,173.3,254.3,184.7
	c59.9,5.7,120.9-0.9,183.8-2c0.1,1.2,1.1,8.5,1.2,15.9c0.9,59.2,1.9,118.5,2.3,177.7c0.5,65.6-39.2,94.7-101.1,73.9
	c-205.1-69-382.5-182.2-530.9-339.5c-175.8-186.3-288.1-406.1-329.5-659c-51.8-317.2,5.4-615.3,180-886.1
	c206.5-320.4,500.6-517.5,875.6-581.6c400.3-68.4,762.5,28,1075.4,289.7c227.7,190.5,370.3,434.1,429.1,725.6
	c8.5,42.1,12.1,85.2,18.2,127.9c1.3,9,3.4,17.9,5.1,26.9C2717.5,1301.5,2717.5,1359.1,2717.5,1416.6z"/>
</svg>
