<?xml version="1.0" encoding="utf-8"?>
<!-- Generator: Adobe Illustrator 26.0.1, SVG Export Plug-In . SVG Version: 6.00 Build 0)  -->
<svg class="github-icon social-icon" version="1.2" baseProfile="tiny" id="Layer_1" xmlns="http://www.w3.org/2000/svg" xmlns:xlink="http://www.w3.org/1999/xlink"
	 x="0px" y="0px" viewBox="0 0 2884.12 2607.12" overflow="visible" xml:space="preserve">
<path d="M2717.48,1416.63c-6.77,46.66-11.95,93.62-20.56,139.94c-56.99,306.62-208.8,557.45-448.4,755.62
	c-121.08,100.15-257.08,174.2-406.05,224.17c-13.36,4.48-27.87,7.39-41.91,7.65c-40.21,0.75-62.38-20.94-64.74-61.63
	c-0.69-11.81-0.18-23.69-0.12-35.54c0.49-95.65,0.78-191.3,1.56-286.95c0.8-96.74-11.89-189.09-83.68-261.69
	c62.25-13.06,123.84-22.94,183.74-39.09c228.26-61.54,359.14-210.87,393.3-444.59c16.28-111.39,20.45-222.22-20.41-330.28
	c-20.57-54.41-50.01-103.45-88.19-147.07c-9.48-10.83-11.48-19.74-7.12-33.58c32.63-103.4,21.9-205.05-13.3-305.78
	c-5.26-15.04-15.38-15.41-27.25-15.7c-65.24-1.62-124.98,19.59-182.14,47.46c-45.46,22.16-88.29,49.69-133.19,73.1
	c-11.3,5.89-27.17,9.67-39.08,6.78c-203.55-49.56-406.74-49.11-610.25,0.2c-11.24,2.72-26.81-0.07-36.72-6.19
	c-75.74-46.75-152.88-90.05-240.1-112.08c-92.38-23.33-104.35-16.85-125.2,74.07c-18.66,81.4-18.7,162.47,7.98,242.76
	c2.46,7.4-0.21,20.02-5.4,25.91c-105.09,119.33-133.19,260.42-119.35,413.96c8.65,95.98,28.49,188.8,76.37,273.63
	c67.76,120.06,173.09,192.77,302.45,231.22c66.69,19.82,135.74,31.67,205.08,47.43c-42.1,42.19-64.94,96.33-75.52,156.58
	c-1.1,6.28-9.81,13.51-16.6,16.18c-143.3,56.42-278.13,30.45-364.79-111.79c-43.14-70.81-103.71-119.95-189.6-130.03
	c-9.89-1.16-20.77-1.96-29.96,0.96c-12.7,4.03-24.22,11.74-36.25,17.88c7.04,11.79,11.81,26.17,21.62,34.84
	c19.54,17.27,42.85,30.21,62.81,47.06c50.35,42.5,82.72,97.87,107.41,157.9c46.92,114.04,135.13,173.34,254.34,184.68
	c59.87,5.7,120.92-0.94,183.84-2.04c0.09,1.16,1.05,8.5,1.16,15.86c0.9,59.25,1.9,118.49,2.34,177.74
	c0.49,65.57-39.15,94.71-101.14,73.85c-205.14-69.03-382.55-182.19-530.93-339.47c-175.79-186.33-288.12-406.1-329.45-659.02
	c-51.84-317.21,5.44-615.26,179.98-886.1c206.45-320.37,500.63-517.51,875.61-581.56c400.3-68.37,762.54,28,1075.42,289.68
	c227.71,190.45,370.28,434.1,429.08,725.6c8.5,42.14,12.14,85.25,18.21,127.89c1.29,9.03,3.36,17.95,5.07,26.92
	C2717.48,1301.49,2717.48,1359.06,2717.48,1416.63z"/>
</svg>
