<svg width="31" height="31" viewBox="0 0 31 31" fill="none" xmlns="http://www.w3.org/2000/svg">
<path d="M15.7675 0.27002C11.6899 0.27002 11.1817 0.289709 9.58584 0.357218C7.98345 0.435978 6.89956 0.684446 5.94319 1.05574C4.94225 1.43362 4.03577 2.02525 3.28692 2.7894C2.52065 3.53649 1.92869 4.44348 1.55327 5.44567C1.18197 6.40204 0.933506 7.48592 0.854746 9.08831C0.782549 10.6851 0.767548 11.1923 0.767548 15.27C0.767548 19.3477 0.787238 19.8559 0.854746 21.4517C0.933506 23.0494 1.18197 24.138 1.55327 25.0944C1.93115 26.0953 2.52278 27.0018 3.28692 27.7506C4.03402 28.5169 4.94101 29.1089 5.94319 29.4843C6.89956 29.8509 7.98814 30.1041 9.58584 30.1828C11.1826 30.255 11.6899 30.27 15.7675 30.27C19.8452 30.27 20.3534 30.2503 21.9493 30.1828C23.547 30.1041 24.6355 29.85 25.5919 29.4843C26.5928 29.1064 27.4993 28.5148 28.2482 27.7506C29.0154 27.0044 29.6075 26.0971 29.9818 25.0944C30.3484 24.138 30.6016 23.0494 30.6804 21.4517C30.7525 19.855 30.7675 19.3477 30.7675 15.27C30.7675 11.1923 30.7479 10.6841 30.6804 9.08831C30.6016 7.49061 30.3475 6.39641 29.9818 5.44567C29.6039 4.44472 29.0123 3.53824 28.2482 2.7894C27.5019 2.02214 26.5947 1.43002 25.5919 1.05574C24.6355 0.684446 23.547 0.435978 21.9493 0.357218C20.3525 0.285021 19.8452 0.27002 15.7675 0.27002ZM15.7675 2.97036C19.7721 2.97036 20.2503 2.99005 21.833 3.05756C23.2929 3.126 24.088 3.36978 24.6158 3.57606C25.2684 3.81695 25.8591 4.20037 26.3448 4.69839C26.842 5.18203 27.224 5.77135 27.4624 6.42266C27.6687 6.95054 27.9125 7.74564 27.9809 9.20551C28.0485 10.7882 28.0681 11.2673 28.0681 15.271C28.0681 19.2746 28.0485 19.7537 27.9753 21.3364C27.8966 22.7963 27.6528 23.5914 27.4474 24.1193C27.1633 24.8234 26.8464 25.3157 26.3232 25.8482C25.8359 26.3431 25.2456 26.7247 24.5943 26.9659C24.073 27.1721 23.2666 27.4159 21.8011 27.4844C20.21 27.5519 19.7412 27.5716 15.7263 27.5716C11.7114 27.5716 11.2435 27.5519 9.65053 27.4787C8.19066 27.4 7.38525 27.1562 6.85737 26.9509C6.14478 26.6668 5.65628 26.3498 5.13309 25.8267C4.60522 25.2988 4.26955 24.7962 4.01077 24.0977C3.80074 23.5764 3.56071 22.77 3.48289 21.3045C3.42944 19.7321 3.40413 19.2446 3.40413 15.2485C3.40413 11.2542 3.42944 10.7657 3.48289 9.17363C3.56071 7.70814 3.80074 6.90366 4.01077 6.38047C4.26955 5.66694 4.60615 5.17938 5.13309 4.6515C5.65535 4.12925 6.14478 3.79171 6.85737 3.5273C7.38525 3.32196 8.17097 3.07818 9.63647 3.00505C11.2276 2.94785 11.6964 2.92723 15.7057 2.92723L15.7675 2.97036ZM15.7675 7.57124C14.7562 7.57088 13.7547 7.76981 12.8202 8.15667C11.8857 8.54353 11.0367 9.11074 10.3215 9.82589C9.6064 10.541 9.03918 11.3901 8.65232 12.3245C8.26546 13.259 8.06653 14.2605 8.0669 15.2719C8.06653 16.2833 8.26546 17.2848 8.65232 18.2192C9.03918 19.1537 9.6064 20.0028 10.3215 20.7179C11.0367 21.433 11.8857 22.0003 12.8202 22.3871C13.7547 22.774 14.7562 22.9729 15.7675 22.9725C16.7789 22.9729 17.7804 22.774 18.7149 22.3871C19.6493 22.0003 20.4984 21.433 21.2136 20.7179C21.9287 20.0028 22.4959 19.1537 22.8828 18.2192C23.2696 17.2848 23.4686 16.2833 23.4682 15.2719C23.4686 14.2605 23.2696 13.259 22.8828 12.3245C22.4959 11.3901 21.9287 10.541 21.2136 9.82589C20.4984 9.11074 19.6493 8.54353 18.7149 8.15667C17.7804 7.76981 16.7789 7.57088 15.7675 7.57124ZM15.7675 20.2722C13.0035 20.2722 10.7672 18.036 10.7672 15.2719C10.7672 12.5078 13.0035 10.2716 15.7675 10.2716C18.5316 10.2716 20.7679 12.5078 20.7679 15.2719C20.7679 18.036 18.5316 20.2722 15.7675 20.2722ZM25.5788 7.26371C25.5783 7.74158 25.3881 8.1997 25.05 8.53743C24.7119 8.87516 24.2536 9.06487 23.7757 9.06487C23.5395 9.06487 23.3055 9.01833 23.0872 8.92791C22.8689 8.83748 22.6705 8.70495 22.5034 8.53787C22.3364 8.37079 22.2038 8.17244 22.1134 7.95414C22.023 7.73584 21.9764 7.50187 21.9764 7.26558C21.9764 7.0293 22.023 6.79532 22.1134 6.57702C22.2038 6.35872 22.3364 6.16037 22.5034 5.99329C22.6705 5.82621 22.8689 5.69368 23.0872 5.60326C23.3055 5.51283 23.5395 5.46629 23.7757 5.46629C24.7668 5.46629 25.5788 6.27264 25.5788 7.26371Z" fill="white" fill-opacity="0.9"/>
</svg>
