<?xml version="1.0" encoding="utf-8"?>
<!-- Generator: Adobe Illustrator 26.0.1, SVG Export Plug-In . SVG Version: 6.00 Build 0)  -->
<svg version="1.1" id="Layer_1" xmlns="http://www.w3.org/2000/svg" xmlns:xlink="http://www.w3.org/1999/xlink" x="0px" y="0px"
	 viewBox="0 0 310 424.8" style="enable-background:new 0 0 310 424.8;" xml:space="preserve">
<path d="M152.5,149.6c-0.4,5.1-1.3,9.8-2.7,14.1c-0.4,1.4-0.9,2.7-1.4,3.9H81c-5.7-5.1-11.3-11.2-16.6-18
	c-6.4-8.3-12.4-17.7-17.7-28.1c-23.8-47-23.3-95,1.1-107.5s63.5,15.6,87.4,62.5c5.2,10.3,9.3,20.6,12.2,30.6
	C151.8,122.6,153.5,137.2,152.5,149.6z"/>
<path d="M249.3,113.2c-6.2,13.8-13.6,26.2-21.8,36.4c-5.5,7-11.4,13-17.3,18h-58.4c-0.7-1.2-1.4-2.5-2-3.9
	c-1.9-4.2-3.3-8.9-4.2-14.1c-2.1-12.1-1.6-26.7,1.8-42.4c0,0,0,0,0,0c2.4-11.1,6.1-22.7,11.3-34.3c21.4-48.1,59-78.1,84.1-66.9
	C267.8,17,270.7,65.1,249.3,113.2z"/>
<g>
	<path d="M227.5,149.6c-0.7,0-1.4,0-2.2,0H4.6v188.9c0,44.1,35.9,80,80,80h220.8V229.6C305.4,186.2,270.7,150.7,227.5,149.6z
		 M287.4,400.4H84.6c-34.2,0-62-27.8-62-62V167.6h202.8c34.2,0,62,27.8,62,62V400.4z"/>
</g>
<g>
	<path d="M82.9,202.5V380H59.8V202.5H82.9z"/>
	<path d="M258.1,202.5v21.6h-61.3V380h-23.1V224.1h-61.3v-21.6H258.1z"/>
</g>
</svg>
