<svg width="31" height="31" viewBox="0 0 31 31" fill="none" xmlns="http://www.w3.org/2000/svg">
<path d="M28.3563 0.529785H3.1788C1.84755 0.529785 0.767548 1.60979 0.767548 2.94104V28.1185C0.767548 29.4498 1.84755 30.5298 3.1788 30.5298H28.3563C29.6875 30.5298 30.7675 29.4498 30.7675 28.1185V2.94104C30.7675 1.60979 29.6875 0.529785 28.3563 0.529785ZM28.3563 28.1298C11.5638 28.126 3.16755 28.1223 3.16755 28.1185C3.1713 11.326 3.17505 2.92979 3.1788 2.92979C19.9713 2.93354 28.3675 2.93729 28.3675 2.94104C28.3638 19.7335 28.36 28.1298 28.3563 28.1298ZM5.21505 11.776H9.6663V26.0935H5.21505V11.776ZM7.44255 9.81854C8.8638 9.81854 10.0225 8.66354 10.0225 7.23853C10.0225 6.89972 9.95582 6.56423 9.82616 6.25121C9.6965 5.93819 9.50646 5.65377 9.26688 5.4142C9.02731 5.17462 8.74289 4.98458 8.42987 4.85493C8.11685 4.72527 7.78136 4.65854 7.44255 4.65854C7.10374 4.65854 6.76824 4.72527 6.45522 4.85493C6.1422 4.98458 5.85779 5.17462 5.61821 5.4142C5.37864 5.65377 5.1886 5.93819 5.05894 6.25121C4.92928 6.56423 4.86255 6.89972 4.86255 7.23853C4.8588 8.66354 6.0138 9.81854 7.44255 9.81854ZM16.9038 19.0098C16.9038 17.1423 17.26 15.3348 19.5738 15.3348C21.8538 15.3348 21.8875 17.4685 21.8875 19.1298V26.0935H26.335V18.241C26.335 14.386 25.5025 11.4198 20.9988 11.4198C18.835 11.4198 17.3838 12.6085 16.7875 13.7335H16.7275V11.776H12.4563V26.0935H16.9038V19.0098Z" fill="white" fill-opacity="0.9"/>
</svg>
