<?xml version="1.0" encoding="utf-8"?>
<!-- Generator: Adobe Illustrator 26.0.1, SVG Export Plug-In . SVG Version: 6.00 Build 0)  -->
<svg version="1.2" baseProfile="tiny" id="Layer_1" xmlns="http://www.w3.org/2000/svg" xmlns:xlink="http://www.w3.org/1999/xlink"
	 x="0px" y="0px" viewBox="0 0 558.72 544.32" overflow="visible" xml:space="preserve">
<path d="M550.24,255.04c0,12.71,0,25.41,0,38.12c-0.35,1.53-0.82,3.04-1.03,4.59c-1.23,9.07-1.9,18.25-3.69,27.2
	c-13.29,66.6-46.33,121.47-100.02,163c-64.3,49.72-137.25,66.91-217.07,52.4c-58.33-10.6-107.99-38.36-147.98-82.14
	c-57.5-62.95-80.54-137.39-69.73-221.76c6.72-52.49,28.2-98.97,62.93-138.99c42.16-48.57,94.9-78.92,158.35-90.25
	c9.33-1.67,18.75-2.8,28.13-4.18c12.71,0,25.41,0,38.12,0c8.52,1.15,17.08,2.02,25.55,3.49c49.14,8.49,93.01,28.51,130.88,61.05
	c49.22,42.29,79.93,95.36,91.42,159.34C547.76,236.24,548.87,245.66,550.24,255.04z M302.73,412.56c0-2.44,0-4.53,0-6.61
	c0-34.4,0.06-68.81-0.03-103.21c-0.03-10.56,2.12-20.32,9.2-28.49c9.54-11.01,21.58-14.8,35.69-11.7
	c12.89,2.84,19.52,11.95,22.51,24.03c1.26,5.09,2.1,10.42,2.14,15.64c0.21,34.76,0.15,69.51,0.17,104.27c0,2.03,0,4.06,0,6.07
	c22.3,0,43.77,0,65.81,0c0-2.32,0-4.38,0-6.44c0-31.23,0.11-62.46-0.06-93.69c-0.06-11.27,0.07-22.64-1.32-33.79
	c-4.24-33.9-23.1-65.12-67.16-68.7c-25.82-2.1-47.63,5.68-63.22,27.47c-0.85,1.19-1.85,2.28-3.74,4.59c0-9.98,0-18.5,0-27.26
	c-22.16,0-43.72,0-65.51,0c0,66.12,0,131.83,0,197.81C258.96,412.56,280.42,412.56,302.73,412.56z M134.84,214.68
	c0,66.18,0,132.01,0,197.87c21.89,0,43.35,0,64.96,0c0-66.11,0-131.94,0-197.87C177.93,214.68,156.49,214.68,134.84,214.68z
	 M169.22,118.46c-26.07-0.18-43.2,19.55-37.71,42.17c3.38,13.94,12.45,22.49,26.13,25.24c15.33,3.08,29.78,0.65,40.05-12.53
	c8.72-11.18,9.14-23.82,3.04-36.31C194.21,123.67,182.16,119.12,169.22,118.46z"/>
</svg>
