<?xml version="1.0" encoding="utf-8"?>
<!-- Generator: Adobe Illustrator 26.0.1, SVG Export Plug-In . SVG Version: 6.00 Build 0)  -->
<svg version="1.1" id="Layer_1" xmlns="http://www.w3.org/2000/svg" xmlns:xlink="http://www.w3.org/1999/xlink" x="0px" y="0px"
	 viewBox="0 0 558.7 544.3" style="enable-background:new 0 0 558.7 544.3;" xml:space="preserve">
<style type="text/css">
	.st0{fill:#FFFFFF;}
</style>
<path class="st0" d="M550.2,255c0,12.7,0,25.4,0,38.1c-0.3,1.5-0.8,3-1,4.6c-1.2,9.1-1.9,18.2-3.7,27.2
	c-13.3,66.6-46.3,121.5-100,163c-64.3,49.7-137.2,66.9-217.1,52.4c-58.3-10.6-108-38.4-148-82.1c-57.5-63-80.5-137.4-69.7-221.8
	c6.7-52.5,28.2-99,62.9-139C115.8,48.9,168.5,18.5,232,7.2c9.3-1.7,18.8-2.8,28.1-4.2c12.7,0,25.4,0,38.1,0c8.5,1.2,17.1,2,25.5,3.5
	c49.1,8.5,93,28.5,130.9,61c49.2,42.3,79.9,95.4,91.4,159.3C547.8,236.2,548.9,245.7,550.2,255z M302.7,412.6c0-2.4,0-4.5,0-6.6
	c0-34.4,0.1-68.8,0-103.2c0-10.6,2.1-20.3,9.2-28.5c9.5-11,21.6-14.8,35.7-11.7c12.9,2.8,19.5,12,22.5,24c1.3,5.1,2.1,10.4,2.1,15.6
	c0.2,34.8,0.1,69.5,0.2,104.3c0,2,0,4.1,0,6.1c22.3,0,43.8,0,65.8,0c0-2.3,0-4.4,0-6.4c0-31.2,0.1-62.5-0.1-93.7
	c-0.1-11.3,0.1-22.6-1.3-33.8c-4.2-33.9-23.1-65.1-67.2-68.7c-25.8-2.1-47.6,5.7-63.2,27.5c-0.9,1.2-1.9,2.3-3.7,4.6
	c0-10,0-18.5,0-27.3c-22.2,0-43.7,0-65.5,0c0,66.1,0,131.8,0,197.8C259,412.6,280.4,412.6,302.7,412.6z M134.8,214.7
	c0,66.2,0,132,0,197.9c21.9,0,43.4,0,65,0c0-66.1,0-131.9,0-197.9C177.9,214.7,156.5,214.7,134.8,214.7z M169.2,118.5
	c-26.1-0.2-43.2,19.5-37.7,42.2c3.4,13.9,12.4,22.5,26.1,25.2c15.3,3.1,29.8,0.6,40.1-12.5c8.7-11.2,9.1-23.8,3-36.3
	C194.2,123.7,182.2,119.1,169.2,118.5z"/>
</svg>
