<?xml version="1.0" encoding="utf-8"?>
<!-- Generator: Adobe Illustrator 26.0.1, SVG Export Plug-In . SVG Version: 6.00 Build 0)  -->
<svg version="1.2" baseProfile="tiny" id="Layer_1" xmlns="http://www.w3.org/2000/svg" xmlns:xlink="http://www.w3.org/1999/xlink"
	 x="0px" y="0px" viewBox="0 0 612 557.75" overflow="visible" xml:space="preserve">
<g>
	<path d="M301.63,150.48c-10.62,18.52-20.72,36.24-30.92,53.9c-26.5,45.88-53.07,91.72-79.55,137.61
		c-11.39,19.75-22.52,39.66-33.99,59.36c-3.36,5.77-3.16,10.84,0.14,16.56c10.09,17.47,19.95,35.08,29.68,52.75
		c2.5,4.53,5.63,6.36,10.92,6.35c66.63-0.12,133.26-0.26,199.89,0.16c17.18,0.11,28.37-4.45,37.04-21.62
		c17.66-35.01,38.8-68.25,58.4-102.29c2.21-3.83,4.68-5.53,9.41-5.55c17.5-0.1,35-0.89,52.51-1.21c2.8-0.05,5.63,0.98,9.91,1.79
		c-2.32,5.03-3.88,9.23-6.08,13.06c-28.73,49.89-57.52,99.74-86.36,149.56c-4.26,7.36-9.19,14.36-13.15,21.87
		c-2.62,4.97-5.9,6.49-11.42,6.48c-70.41-0.18-140.82-0.12-211.23-0.12c-24.01,0-48.02,0.19-72.02-0.22
		c-3.34-0.06-7.98-2.24-9.71-4.93c-10.2-15.82-19.86-31.99-29.42-48.21c-13.2-22.39-25.96-45.04-39.33-67.34
		c-3.92-6.54-3.78-11.58,0.13-18.26c42.6-72.62,84.89-145.42,127.17-218.22c4.45-7.67,7.64-16.16,12.7-23.37
		c2.73-3.88,8.07-8,12.46-8.27c19.34-1.17,38.75-1.01,58.14-1.24C298.21,149.08,299.47,149.81,301.63,150.48z"/>
	<path d="M601.99,276.36c-22.3,0-44.6-0.01-66.9,0c-49.61,0.04-99.21,0.18-148.82,0c-5.55-0.02-8.4,1.59-11.01,6.68
		c-8.09,15.77-16.99,31.12-25.53,46.66c-1.03,1.88-1.99,3.83-2.7,5.84c-2.81,7.99-1.33,10.43,7.04,10.77
		c15.07,0.61,30.16,0.92,45.24,1.4c2.42,0.08,4.9,0.07,7.22,0.62c4.46,1.06,6.52,3.29,3.73,8.1c-8.88,15.35-17.39,30.92-26.55,46.1
		c-1.18,1.95-5.38,2.91-8.19,2.93c-38.01,0.32-76.02,0.37-114.03,0.57c-5.38,0.03-10.75,0.72-16.13,0.7
		c-2.14-0.01-5.38-0.49-6.14-1.86c-0.9-1.64-0.35-4.83,0.72-6.69c15.03-26.04,30.44-51.87,45.4-77.95
		c15.38-26.82,30.37-53.86,45.53-80.8c0.4-0.7,0.85-1.38,1.19-2.11c7.85-16.88,19.31-24.23,39.63-23.61
		c61.67,1.88,123.42,1.18,185.14,1.25c8.65,0.01,14.73,2.76,19.08,10.59c7.31,13.16,15.38,25.89,23.03,38.87
		c1.59,2.69,2.7,5.67,4.03,8.51C602.65,274.09,602.32,275.23,601.99,276.36z"/>
	<path d="M123.12,75.92c10.87-18.93,20.63-36.44,31.08-53.53c1.31-2.14,6.21-2.9,9.45-2.93c65.22-0.59,130.44-1.17,195.66-1.33
		c29.91-0.07,59.82,0.95,89.73,1.05c6.59,0.02,10.07,2.5,13.26,8.08c15.31,26.83,31.18,53.33,46.61,80.08
		c6.38,11.07,12.14,22.49,19.26,35.76c-47.1,0-92.21,0-138.85,0c1.54-4.04,2.44-7.53,4.11-10.61c7.54-13.95,15.56-27.64,22.87-41.7
		c4.37-8.4,3.57-9.87-5.59-10.19c-23.96-0.84-47.93-1.38-71.91-1.63c-64.14-0.67-128.29-1.09-192.43-1.71
		C139.45,77.19,132.52,76.48,123.12,75.92z"/>
	<path d="M41.16,337.81c-5.09-7.52-9.06-12.86-12.46-18.55c-6.33-10.6-12.19-21.47-18.49-32.09c-4.27-7.19-4.76-12.74,0.41-20.91
		c18.09-28.55,34.64-58.08,51.75-87.26c4.34-7.41,8.17-15.17,13.04-22.2c2.22-3.21,6.34-7.06,9.72-7.18
		c19.89-0.71,39.81-0.42,59.73-0.37c0.94,0,1.87,0.84,4.19,1.96C113.37,212.94,77.87,274.32,41.16,337.81z"/>
</g>
</svg>
