<?xml version="1.0" encoding="utf-8"?>
<!-- Generator: Adobe Illustrator 26.0.1, SVG Export Plug-In . SVG Version: 6.00 Build 0)  -->
<svg version="1.2" baseProfile="tiny" id="Layer_1" xmlns="http://www.w3.org/2000/svg" xmlns:xlink="http://www.w3.org/1999/xlink"
	 x="0px" y="0px" viewBox="0 0 106 100" overflow="visible" xml:space="preserve">
<path fill="#53C1DE" d="M83.27,34.3c-0.97-0.35-1.98-0.68-3.02-1c0.17-0.73,0.33-1.45,0.47-2.16c2.29-11.62,0.79-20.98-4.32-24.06
	c-4.9-2.96-12.92,0.13-21.01,7.49c-0.78,0.71-1.56,1.46-2.34,2.24c-0.52-0.52-1.04-1.02-1.56-1.5C43,7.44,34.5,4.12,29.39,7.21
	c-4.9,2.96-6.35,11.76-4.29,22.78c0.2,1.06,0.43,2.15,0.69,3.25c-1.2,0.36-2.37,0.74-3.48,1.14c-9.95,3.63-16.3,9.31-16.3,15.2
	c0,6.09,6.82,12.2,17.18,15.9c0.82,0.29,1.67,0.57,2.54,0.83c-0.28,1.19-0.53,2.37-0.74,3.51c-1.97,10.82-0.43,19.41,4.45,22.36
	c5.04,3.04,13.51-0.08,21.75-7.62c0.65-0.6,1.31-1.23,1.96-1.89c0.85,0.85,1.7,1.66,2.54,2.42c7.99,7.18,15.87,10.09,20.75,7.13
	c5.04-3.05,6.68-12.28,4.55-23.51c-0.16-0.86-0.35-1.73-0.56-2.63c0.59-0.18,1.18-0.37,1.75-0.57c10.77-3.73,17.78-9.76,17.78-15.93
	C99.98,43.67,93.42,37.95,83.27,34.3z M58.02,17.74c6.94-6.31,13.42-8.8,16.37-7.02c3.15,1.9,4.37,9.55,2.39,19.58
	c-0.13,0.64-0.27,1.29-0.42,1.95c-3.9-0.94-8.13-1.64-12.56-2.08c-2.58-3.84-5.26-7.34-7.94-10.36
	C56.58,19.08,57.3,18.39,58.02,17.74z M33.77,54.62c0.84,1.7,1.73,3.4,2.66,5.08c0.95,1.73,1.94,3.41,2.95,5.05
	c-3.08-0.36-5.98-0.85-8.66-1.46C31.55,60.49,32.57,57.58,33.77,54.62z M33.76,44.76c-1.17-2.9-2.17-5.75-2.99-8.5
	c2.68-0.63,5.54-1.14,8.52-1.53c-0.98,1.6-1.95,3.26-2.88,4.95C35.48,41.36,34.6,43.06,33.76,44.76z M35.89,49.68
	c1.21-2.64,2.55-5.3,4-7.92c1.45-2.63,2.98-5.17,4.56-7.58c2.79-0.22,5.66-0.34,8.56-0.34c2.91,0,5.78,0.12,8.57,0.34
	c1.55,2.4,3.07,4.93,4.53,7.56c1.47,2.66,2.83,5.3,4.05,7.88c-1.23,2.64-2.58,5.3-4.05,7.96c-1.47,2.66-2.98,5.2-4.51,7.6
	c-2.79,0.21-5.67,0.32-8.6,0.32c-2.92,0-5.77-0.09-8.51-0.28c-1.59-2.43-3.13-4.98-4.59-7.62C38.44,54.97,37.11,52.32,35.89,49.68z
	 M69.59,59.68c0.96-1.74,1.87-3.47,2.73-5.2c1.26,2.99,2.31,5.89,3.15,8.64c-2.72,0.65-5.67,1.17-8.76,1.56
	C67.69,63.06,68.65,61.4,69.59,59.68z M72.27,44.77c-0.85-1.7-1.75-3.41-2.7-5.12c-0.93-1.68-1.88-3.32-2.86-4.91
	c3,0.4,5.87,0.92,8.57,1.57C74.47,39.02,73.46,41.86,72.27,44.77z M53.05,22.81c1.85,2.1,3.71,4.44,5.53,6.98
	c-1.84-0.09-3.7-0.14-5.57-0.14c-1.86,0-3.7,0.05-5.53,0.14C49.3,27.27,51.17,24.94,53.05,22.81z M31.41,10.84
	c3.14-1.9,10.09,0.81,17.42,7.61c0.47,0.43,0.94,0.89,1.41,1.36c-2.73,3.07-5.43,6.55-8,10.36c-4.42,0.43-8.65,1.12-12.54,2.04
	c-0.25-1.03-0.47-2.04-0.65-3.03C27.28,19.74,28.46,12.63,31.41,10.84z M26.81,62.28c-0.79-0.24-1.56-0.5-2.31-0.76
	c-4.58-1.64-8.36-3.77-10.96-6.09c-2.33-2.09-3.51-4.16-3.51-5.84c0-3.58,5.1-8.14,13.61-11.24c1.03-0.38,2.11-0.73,3.23-1.06
	c1.18,4,2.72,8.18,4.58,12.41C29.56,53.99,28,58.24,26.81,62.28z M48.58,81.41c-3.65,3.33-7.31,5.69-10.52,6.88
	c-2.89,1.07-5.2,1.1-6.59,0.26c-2.96-1.79-4.2-8.69-2.52-17.94c0.19-1.06,0.42-2.15,0.69-3.26c3.85,0.89,8.11,1.53,12.66,1.92
	c2.6,3.82,5.32,7.34,8.07,10.42C49.77,80.3,49.17,80.87,48.58,81.41z M53.16,76.66c-1.9-2.15-3.8-4.52-5.65-7.07
	c1.8,0.07,3.63,0.11,5.5,0.11c1.92,0,3.81-0.05,5.67-0.13C56.84,72.17,55,74.55,53.16,76.66z M77.53,82.51
	c-0.56,3.15-1.68,5.26-3.08,6.1c-2.96,1.79-9.29-0.54-16.12-6.68c-0.78-0.7-1.57-1.46-2.36-2.25c2.65-3.03,5.29-6.55,7.88-10.46
	c4.54-0.42,8.83-1.11,12.72-2.05c0.19,0.8,0.36,1.59,0.51,2.37C78.02,74.51,78.15,79,77.53,82.51z M80.94,61.54
	c-0.51,0.18-1.04,0.35-1.58,0.52c-1.19-3.94-2.79-8.12-4.76-12.45c1.87-4.22,3.42-8.35,4.57-12.26c0.96,0.29,1.89,0.6,2.79,0.92
	c8.69,3.13,14,7.76,14,11.32C95.97,53.39,90.24,58.32,80.94,61.54z"/>
<path fill="#53C1DE" d="M53,40.82c4.63,0,8.39,3.93,8.39,8.77c0,4.85-3.76,8.77-8.39,8.77s-8.39-3.93-8.39-8.77
	S48.37,40.82,53,40.82z"/>
</svg>
