<svg width="128" height="101" viewBox="0 0 128 101" fill="none" xmlns="http://www.w3.org/2000/svg">
<path d="M109.741 57.6553C105.314 57.6816 101.481 58.8011 98.2653 60.468C97.0781 57.9941 95.8909 55.8323 95.6932 54.218C95.4706 52.343 95.1986 51.1969 95.4706 48.9576C95.7425 46.7178 96.9791 43.5407 96.9791 43.2803C96.9541 43.0459 96.7068 41.9001 94.1595 41.874C91.6123 41.848 89.4108 42.3948 89.1634 43.098C88.9161 43.8011 88.4214 45.4157 88.0999 47.0823C87.6547 49.5303 83.0048 58.2021 80.3584 62.7594C79.4927 60.9886 78.7507 59.4261 78.6021 58.1758C78.3797 56.3011 78.1074 55.155 78.3797 52.9157C78.6518 50.6758 79.8885 47.499 79.8885 47.2386C79.8637 47.0042 79.6164 45.8584 77.0691 45.8323C74.5213 45.8063 72.3203 46.3532 72.073 47.0563C71.8257 47.7594 71.5536 49.4261 71.0095 51.0407C70.4898 52.6553 64.3065 67.1344 62.6989 70.9105C61.8827 72.8376 61.1657 74.374 60.646 75.4157C60.1266 76.4573 60.6213 75.4938 60.5718 75.598C60.1266 76.4834 59.8793 76.9782 59.8793 76.9782V77.0045C59.533 77.6555 59.162 78.2803 58.9886 78.2803C58.865 78.2803 58.6176 76.5355 59.0381 74.1399C59.9532 69.1136 62.1792 61.2753 62.1547 60.9889C62.1547 60.8586 62.575 59.4782 60.72 58.7753C58.9144 58.0722 58.2716 59.2441 58.123 59.2441C57.9746 59.2441 57.8509 59.6607 57.8509 59.6607C57.8509 59.6607 59.8543 50.8329 54.0173 50.8329C50.3567 50.8329 45.3112 55.0256 42.8131 58.8537C41.2302 59.7652 37.8665 61.692 34.3049 63.7495C32.9445 64.5308 31.5347 65.3641 30.1992 66.1193L29.9273 65.8063C22.8536 57.8636 9.76975 52.2386 10.3139 41.5615C10.5118 37.6813 11.7979 27.4469 35.4431 15.0511C54.8092 4.89486 70.3169 7.68132 73.0126 13.8792C76.8463 22.7334 64.727 39.1917 44.5944 41.5615C36.9271 42.473 32.8953 39.348 31.8815 38.1761C30.818 36.9521 30.6696 36.9001 30.2738 37.1344C29.6308 37.499 30.0265 38.5928 30.2738 39.2438C30.8674 40.8844 33.3408 43.8011 37.5454 45.2594C41.2304 46.5355 50.2336 47.2386 61.1162 42.8115C73.3097 37.8376 82.832 24.0355 80.0371 12.499C77.1928 0.754237 58.6923 -3.09993 41.2059 3.43653C30.793 7.34278 19.5146 13.4365 11.4021 21.4313C1.75619 30.9105 0.222727 39.1917 0.865791 42.6292C3.11676 54.8948 19.1684 62.8896 25.599 68.8011C25.2775 68.9831 24.9807 69.1654 24.7086 69.3219C21.4933 70.9883 9.25036 77.7334 6.18344 84.8685C2.72078 92.9415 6.72757 98.749 9.39876 99.5303C17.6597 101.952 26.1184 97.6032 30.6941 90.4417C35.2447 83.2803 34.7008 73.9834 32.5985 69.7386L32.5241 69.5823L35.0469 68.0198C36.6795 67.0042 38.2872 66.0667 39.6967 65.2592C38.9055 67.5248 38.3364 70.2071 38.0398 74.1133C37.6936 78.6969 39.4744 84.6342 41.824 86.9779C42.8628 87.9933 44.0995 88.0196 44.8662 88.0196C47.5869 88.0196 48.8235 85.6495 50.1838 82.8112C51.8657 79.3477 53.3497 75.3373 53.3497 75.3373C53.3497 75.3373 51.4947 86.1967 56.565 86.1967C58.42 86.1967 60.275 83.6706 61.1159 82.3685V82.3946C61.1159 82.3946 61.1654 82.3165 61.2643 82.1342C61.3681 81.9726 61.4671 81.8077 61.5611 81.6396V81.5875C62.3031 80.2334 63.9603 77.1344 66.4336 72.0042C69.6239 65.3896 72.6911 57.1084 72.6911 57.1084C72.6911 57.1084 72.9879 59.1396 73.903 62.473C74.4469 64.4524 75.6341 66.6136 76.5492 68.723C75.8072 69.8167 75.362 70.442 75.362 70.442L75.3868 70.468C74.7934 71.3014 74.1254 72.187 73.4331 73.0722C70.9103 76.2493 67.8928 79.8693 67.4971 80.911C67.0272 82.1347 67.1261 83.0461 68.0412 83.7756C68.709 84.2964 69.8962 84.4003 71.1576 84.2964C73.4331 84.1399 75.016 83.5412 75.8075 83.1764C77.0441 82.7076 78.4539 82.0045 79.8143 80.9628C82.2876 79.036 83.7963 76.3016 83.6479 72.6558C83.5737 70.6506 82.9554 68.6714 82.1887 66.7964C82.4112 66.4579 82.6341 66.1191 82.8564 65.7547C86.7643 59.7389 89.7817 53.1245 89.7817 53.1245C89.7817 53.1245 90.0785 55.1558 90.9937 58.4891C91.4634 60.1818 92.4035 62.031 93.2444 63.854C89.5839 67.005 87.2837 70.6508 86.4922 73.0467C85.033 77.4737 86.1707 79.479 88.3225 79.9477C89.2868 80.156 90.6721 79.6873 91.7107 79.2185C92.9968 78.7758 94.555 78.0204 95.9898 76.9008C98.4631 74.9737 100.838 72.2915 100.714 68.6717C100.64 67.005 100.219 65.3644 99.6503 63.8019C102.767 62.4477 106.798 61.6665 111.918 62.3175C122.924 63.6717 125.101 70.9112 124.681 73.9321C124.26 76.9532 121.96 78.6196 121.193 79.1404C120.426 79.6352 120.179 79.8178 120.253 80.1821C120.352 80.7292 120.698 80.7029 121.366 80.599C122.281 80.4425 127.154 78.125 127.352 72.5524C127.648 65.3899 121.193 57.5774 109.741 57.6553ZM24.857 87.7855C21.2212 91.9782 16.1015 93.5667 13.9249 92.2125C11.5753 90.7803 12.4902 84.6084 16.9671 80.1553C19.6878 77.4469 23.2246 74.9469 25.5496 73.4105C26.069 73.0719 26.8604 72.5774 27.8003 71.9782C27.9487 71.8743 28.0476 71.8219 28.0476 71.8219C28.2207 71.7178 28.4186 71.5876 28.6165 71.4573C30.2736 77.8115 28.6907 83.3844 24.857 87.7855ZM51.4452 68.749C50.1838 72.0042 47.5127 80.3636 45.905 79.8948C44.5197 79.5042 43.679 73.1761 45.6327 66.9261C46.622 63.7748 48.7243 60.0251 49.961 58.5665C51.9646 56.2227 54.1409 55.4415 54.6853 56.405C55.3284 57.6553 52.2367 66.7178 51.4452 68.749ZM73.3836 79.7907C72.8395 80.0774 72.3448 80.2855 72.1222 80.1295C71.9491 80.0253 72.3446 79.6347 72.3446 79.6347C72.3446 79.6347 75.09 76.5357 76.1782 75.1034C76.7966 74.2704 77.5386 73.3068 78.33 72.2128V72.5253C78.3303 76.275 74.9171 78.7751 73.3836 79.7907ZM90.3009 75.7282C89.9052 75.4157 89.9549 74.4521 91.2902 71.4313C91.8099 70.2334 92.9968 68.2282 95.0497 66.3271C95.297 67.1084 95.4457 67.8633 95.4207 68.5667C95.3962 73.2542 92.2303 74.999 90.3009 75.7282Z" fill="#CF649A"/>
</svg>
