<?xml version="1.0" encoding="utf-8"?>
<!-- Generator: Adobe Illustrator 26.0.1, SVG Export Plug-In . SVG Version: 6.00 Build 0)  -->
<svg version="1.2" baseProfile="tiny" id="Layer_1" xmlns="http://www.w3.org/2000/svg" xmlns:xlink="http://www.w3.org/1999/xlink"
	 x="0px" y="0px" viewBox="0 0 100 100" overflow="visible" xml:space="preserve">
<path fill="#007ACC" d="M0,0v100h100V0H0z M57.32,54.43H44.3v36.98h-9.2V54.43H22.08l0.03-4.1l0.05-4.08l17.48-0.05
	c9.6-0.01,17.52,0.02,17.57,0.08c0.06,0.05,0.11,1.91,0.11,4.13V54.43z M91.33,83.8c-1.59,4.16-5.53,6.99-11.07,7.92
	c-1.71,0.31-5.78,0.26-7.62-0.08c-4.01-0.71-7.82-2.69-10.17-5.3c-0.92-1.01-2.72-3.66-2.6-3.85c0.04-0.07,0.46-0.32,0.92-0.59
	c0.44-0.26,2.12-1.22,3.71-2.14l2.87-1.67l0.61,0.89c0.84,1.28,2.68,3.05,3.79,3.63c3.19,1.68,7.57,1.45,9.73-0.49
	c0.92-0.84,1.3-1.71,1.3-3c0-1.16-0.14-1.67-0.74-2.54c-0.78-1.11-2.37-2.05-6.88-4c-5.16-2.22-7.38-3.6-9.41-5.79
	c-1.17-1.27-2.29-3.3-2.75-5c-0.38-1.42-0.47-4.96-0.17-6.38c1.06-4.99,4.82-8.46,10.25-9.5c1.77-0.33,5.86-0.2,7.59,0.23
	c2.54,0.63,4.48,1.76,6.25,3.6c0.93,0.98,2.29,2.78,2.4,3.21c0,0.14-4.33,3.05-6.95,4.68c-0.1,0.06-0.48-0.35-0.91-0.99
	c-1.28-1.87-2.63-2.68-4.69-2.82c-3.04-0.21-4.99,1.38-4.97,4.03c0,0.78,0.11,1.24,0.43,1.87c0.66,1.38,1.9,2.21,5.79,3.89
	c7.16,3.08,10.22,5.11,12.13,8C92.29,74.83,92.77,79.98,91.33,83.8z"/>
</svg>
